<svg width="18" height="19" viewBox="0 0 18 19" fill="none" xmlns="http://www.w3.org/2000/svg">
<mask id="mask0_20_318" style="mask-type:alpha" maskUnits="userSpaceOnUse" x="0" y="0" width="18" height="19">
<rect y="0.5" width="18" height="18" fill="#D9D9D9"/>
</mask>
<g mask="url(#mask0_20_318)">
<path d="M3.975 16.625C3.6 16.625 3.28125 16.4938 3.01875 16.2313C2.75625 15.9688 2.625 15.65 2.625 15.275V5.225C2.625 4.85 2.75625 4.53125 3.01875 4.26875C3.28125 4.00625 3.6 3.875 3.975 3.875H5.025V2.28125H6.16875V3.875H11.85V2.28125H12.975V3.875H14.025C14.4 3.875 14.7188 4.00625 14.9813 4.26875C15.2438 4.53125 15.375 4.85 15.375 5.225V15.275C15.375 15.65 15.2438 15.9688 14.9813 16.2313C14.7188 16.4938 14.4 16.625 14.025 16.625H3.975ZM3.975 15.5H14.025C14.075 15.5 14.125 15.475 14.175 15.425C14.225 15.375 14.25 15.325 14.25 15.275V8.225H3.75V15.275C3.75 15.325 3.775 15.375 3.825 15.425C3.875 15.475 3.925 15.5 3.975 15.5ZM3.75 7.1H14.25V5.225C14.25 5.175 14.225 5.125 14.175 5.075C14.125 5.025 14.075 5 14.025 5H3.975C3.925 5 3.875 5.025 3.825 5.075C3.775 5.125 3.75 5.175 3.75 5.225V7.1Z" fill="#AEAEAE"/>
</g>
</svg>
