<svg width="32" height="31" viewBox="0 0 32 31" fill="none" xmlns="http://www.w3.org/2000/svg">
<path d="M16 0C13.8989 0 11.8183 0.406455 9.87706 1.19616C7.93586 1.98586 6.17203 3.14335 4.68629 4.60253C1.68571 7.54948 0 11.5464 0 15.714C0 22.6596 4.592 28.5524 10.944 30.6423C11.744 30.768 12 30.2809 12 29.8566V27.201C7.568 28.1438 6.624 25.0953 6.624 25.0953C5.888 23.2725 4.848 22.7853 4.848 22.7853C3.392 21.8111 4.96 21.8425 4.96 21.8425C6.56 21.9525 7.408 23.461 7.408 23.461C8.8 25.8496 11.152 25.1424 12.064 24.7653C12.208 23.7439 12.624 23.0525 13.072 22.6596C9.52 22.2668 5.792 20.9154 5.792 14.9283C5.792 13.1841 6.4 11.7855 7.44 10.6698C7.28 10.277 6.72 8.64271 7.6 6.52132C7.6 6.52132 8.944 6.09704 12 8.12415C13.264 7.77844 14.64 7.60558 16 7.60558C17.36 7.60558 18.736 7.77844 20 8.12415C23.056 6.09704 24.4 6.52132 24.4 6.52132C25.28 8.64271 24.72 10.277 24.56 10.6698C25.6 11.7855 26.208 13.1841 26.208 14.9283C26.208 20.9311 22.464 22.251 18.896 22.6439C19.472 23.131 20 24.0896 20 25.551V29.8566C20 30.2809 20.256 30.7838 21.072 30.6423C27.424 28.5366 32 22.6596 32 15.714C32 13.6504 31.5861 11.607 30.7821 9.70052C29.978 7.79401 28.7994 6.06171 27.3137 4.60253C25.828 3.14335 24.0641 1.98586 22.1229 1.19616C20.1817 0.406455 18.1012 0 16 0Z" fill="#656565"/>
</svg>
