<svg width="404" height="137" viewBox="0 0 404 137" fill="none" xmlns="http://www.w3.org/2000/svg">
<path d="M2.44922 130.323V132.323H4.44922H21.1789H23.1789V130.323V69.0278C24.9141 65.2993 26.5895 62.6225 28.1735 60.8914C29.6474 59.2807 31.3601 58.5255 33.4243 58.5255C35.2274 58.5255 36.4656 59.242 37.3786 60.8426C38.3869 62.6105 39.013 65.52 39.013 69.8304V130.323V132.323H41.013H55.8456H57.8456V130.323V69.0518C59.6902 65.3085 61.3745 62.6016 62.8826 60.8435C64.2281 59.2751 65.8586 58.5255 67.9185 58.5255C69.8011 58.5255 71.0802 59.2623 72.0118 60.8595C73.0402 62.6223 73.6797 65.5244 73.6797 69.8304V130.323V132.323H75.6797H92.4094H94.4094V130.323V68.5886C94.4094 59.6417 92.715 52.4846 89.0451 47.3938C85.4342 42.103 80.2058 39.4467 73.61 39.4467C68.3855 39.4467 63.9631 40.9293 60.536 44.0475L60.5216 44.0607L60.5074 44.0741C58.3984 46.0698 56.4608 48.4854 54.6855 51.3021C53.5056 48.2232 51.9272 45.6748 49.9006 43.7293C46.8945 40.8434 43.0706 39.4467 38.5985 39.4467C33.398 39.4467 28.9884 40.856 25.56 43.8386C23.728 45.4219 22.0821 47.2615 20.6182 49.3483L19.8873 43.3342L19.6736 41.5755H17.9019H4.44922H2.44922V43.5755V130.323ZM111.702 106.948L111.709 106.964L111.715 106.98C114.229 112.889 117.658 117.914 122.015 122.021C126.358 126.117 131.424 129.215 137.19 131.315C142.948 133.413 149.161 134.452 155.811 134.452C162.558 134.452 168.764 133.478 174.409 131.501L174.421 131.497L174.433 131.493C180.089 129.432 185.182 126.877 189.702 123.819L191.201 122.805L190.34 121.212L184.304 110.036L183.292 108.164L181.486 109.29C177.81 111.581 174.092 113.407 170.332 114.774C166.66 115.993 162.573 116.615 158.053 116.615C150.15 116.615 143.581 114.535 138.231 110.466C133.588 106.856 130.608 101.451 129.453 94.0052H191.34H192.989L193.304 92.3869C193.554 91.1004 193.734 89.5955 193.853 87.8862C193.971 86.1785 194.03 84.3579 194.03 82.4257C194.03 76.2064 193.141 70.4842 191.335 65.2798C189.532 59.9655 186.872 55.4035 183.335 51.6325C179.904 47.7331 175.629 44.7306 170.55 42.6161C165.436 40.4871 159.649 39.4467 153.224 39.4467C147.338 39.4467 141.681 40.559 136.269 42.7828C130.851 44.8909 126.031 47.9918 121.822 52.074L121.812 52.0841L121.801 52.0944C117.692 56.197 114.394 61.2068 111.891 67.0894C109.352 72.9368 108.106 79.5399 108.106 86.8606C108.106 94.2872 109.29 100.994 111.702 106.948ZM145.226 58.7801L145.261 58.7686L145.295 58.7559C147.936 57.7779 150.747 57.2837 153.742 57.2837C159.853 57.2837 164.604 59.1413 168.195 62.7301L168.216 62.7506L168.237 62.7705C171.537 65.8816 173.686 70.5594 174.478 77.0551H129.983C130.644 74.3065 131.565 71.8667 132.732 69.7223C134.24 66.9522 136.052 64.6607 138.156 62.821C140.256 60.9851 142.608 59.6416 145.226 58.7801ZM265.746 112.699C263.456 110.512 262.089 106.795 262.089 101.052V4.54785V2.54785H260.089H214.039H212.039V4.54785V18.5623V20.5623H214.039H241.014V99.9881C241.014 110.802 243.553 119.392 248.936 125.443C254.356 131.537 262.153 134.452 271.989 134.452C276.807 134.452 281 134.03 284.537 133.153C288.104 132.296 291.938 131.02 296.034 129.334L297.733 128.635L297.18 126.883L293.041 113.756L292.375 111.643L290.34 112.521C284.742 114.94 279.961 116.083 275.956 116.083C271.646 116.083 268.3 114.908 265.746 112.699ZM316.98 107.125L316.983 107.132L316.986 107.139C319.377 112.919 322.623 117.877 326.734 121.982C330.833 126.074 335.546 129.182 340.862 131.295C346.159 133.4 351.699 134.452 357.467 134.452C363.236 134.452 368.776 133.4 374.073 131.295C379.389 129.182 384.102 126.074 388.201 121.982C392.312 117.877 395.558 112.919 397.949 107.139L397.952 107.132L397.955 107.125C400.366 101.172 401.55 94.4646 401.55 87.038C401.55 79.6114 400.366 72.9044 397.955 66.9507C395.565 61.0523 392.32 56.029 388.201 51.917C384.102 47.8251 379.389 44.7162 374.073 42.6038C368.776 40.4986 363.236 39.4467 357.467 39.4467C351.699 39.4467 346.159 40.4986 340.862 42.6038C335.546 44.7162 330.833 47.8251 326.734 51.917C322.615 56.029 319.37 61.0523 316.98 66.9507C314.569 72.9044 313.385 79.6114 313.385 87.038C313.385 94.4646 314.569 101.172 316.98 107.125ZM373.82 108.348C369.854 113.5 364.478 116.083 357.467 116.083C350.457 116.083 345.081 113.5 341.115 108.348C337.087 103.114 334.977 96.0745 334.977 87.038C334.977 78.0016 337.087 70.9618 341.115 65.7283C345.081 60.5764 350.457 57.9933 357.467 57.9933C364.478 57.9933 369.854 60.5764 373.82 65.7283C377.848 70.9618 379.958 78.0016 379.958 87.038C379.958 96.0745 377.848 103.114 373.82 108.348Z" fill="#971FFD" stroke="#971FFD" stroke-width="4"/>
</svg>
