<svg width="18" height="19" viewBox="0 0 18 19" fill="none" xmlns="http://www.w3.org/2000/svg">
<mask id="mask0_20_348" style="mask-type:alpha" maskUnits="userSpaceOnUse" x="0" y="0" width="18" height="19">
<rect y="0.5" width="18" height="18" fill="#D9D9D9"/>
</mask>
<g mask="url(#mask0_20_348)">
<path d="M3.86252 14.75H4.80002L11.7375 7.81252L10.8188 6.87502L3.86252 13.8313V14.75ZM14.1375 6.98752L11.6063 4.47502L12.5813 3.50002C12.8063 3.28752 13.0783 3.18127 13.3973 3.18127C13.7158 3.18127 13.9813 3.28752 14.1938 3.50002L15.1125 4.41877C15.325 4.64377 15.4375 4.90927 15.45 5.21527C15.4625 5.52177 15.3563 5.78127 15.1313 5.99377L14.1375 6.98752ZM13.3313 7.81252L5.26877 15.875H2.73752V13.3438L10.8 5.28127L13.3313 7.81252ZM11.2688 7.34377L10.8188 6.87502L11.7375 7.81252L11.2688 7.34377Z" fill="#AEAEAE"/>
</g>
</svg>
