<svg width="18" height="19" viewBox="0 0 18 19" fill="none" xmlns="http://www.w3.org/2000/svg">
<mask id="mask0_20_349" style="mask-type:alpha" maskUnits="userSpaceOnUse" x="0" y="0" width="18" height="19">
<rect y="0.5" width="18" height="18" fill="#D9D9D9"/>
</mask>
<g mask="url(#mask0_20_349)">
<path d="M11.475 13.025L12.525 11.975L9.75 9.2V5.75H8.25V9.8L11.475 13.025ZM9 17C7.9625 17 6.9875 16.803 6.075 16.409C5.1625 16.0155 4.36875 15.4813 3.69375 14.8063C3.01875 14.1313 2.4845 13.3375 2.091 12.425C1.697 11.5125 1.5 10.5375 1.5 9.5C1.5 8.4625 1.697 7.4875 2.091 6.575C2.4845 5.6625 3.01875 4.86875 3.69375 4.19375C4.36875 3.51875 5.1625 2.98425 6.075 2.59025C6.9875 2.19675 7.9625 2 9 2C10.0375 2 11.0125 2.19675 11.925 2.59025C12.8375 2.98425 13.6313 3.51875 14.3063 4.19375C14.9813 4.86875 15.5155 5.6625 15.909 6.575C16.303 7.4875 16.5 8.4625 16.5 9.5C16.5 10.5375 16.303 11.5125 15.909 12.425C15.5155 13.3375 14.9813 14.1313 14.3063 14.8063C13.6313 15.4813 12.8375 16.0155 11.925 16.409C11.0125 16.803 10.0375 17 9 17ZM9 15.5C10.6625 15.5 12.0782 14.9158 13.2472 13.7472C14.4158 12.5782 15 11.1625 15 9.5C15 7.8375 14.4158 6.42175 13.2472 5.25275C12.0782 4.08425 10.6625 3.5 9 3.5C7.3375 3.5 5.922 4.08425 4.7535 5.25275C3.5845 6.42175 3 7.8375 3 9.5C3 11.1625 3.5845 12.5782 4.7535 13.7472C5.922 14.9158 7.3375 15.5 9 15.5Z" fill="#AEAEAE"/>
</g>
</svg>
